<svg xmlns="http://www.w3.org/2000/svg" xmlns:xlink="http://www.w3.org/1999/xlink" width="500" zoomAndPan="magnify" viewBox="0 0 375 374.999991" height="500" preserveAspectRatio="xMidYMid meet" version="1.0"><defs><g/><clipPath id="8aeaba2801"><path d="M 14.882812 140.019531 L 359.882812 140.019531 L 359.882812 235.269531 L 14.882812 235.269531 Z M 14.882812 140.019531 " clip-rule="nonzero"/></clipPath><clipPath id="abd8513b18"><path d="M 14.882812 140.019531 L 359.878906 140.019531 L 359.878906 235.269531 L 14.882812 235.269531 Z M 14.882812 140.019531 " clip-rule="nonzero"/></clipPath><clipPath id="7840d498f8"><path d="M 24.195312 148.945312 L 186.945312 148.945312 L 186.945312 226.195312 L 24.195312 226.195312 Z M 24.195312 148.945312 " clip-rule="nonzero"/></clipPath></defs><g clip-path="url(#8aeaba2801)"><path fill="#ffffff" d="M 14.882812 140.019531 L 359.878906 140.019531 L 359.878906 235.269531 L 14.882812 235.269531 L 14.882812 140.019531 " fill-opacity="1" fill-rule="nonzero"/></g><g clip-path="url(#abd8513b18)"><path stroke-linecap="butt" transform="matrix(0.750459, 0, 0, 0.752314, 14.882141, 140.019996)" fill="none" stroke-linejoin="miter" d="M 0.000894516 -0.0006183 L 459.71446 -0.0006183 L 459.71446 126.608769 L 0.000894516 126.608769 L 0.000894516 -0.0006183 " stroke="#000000" stroke-width="6" stroke-opacity="1" stroke-miterlimit="4"/></g><g clip-path="url(#7840d498f8)"><path fill="#000000" d="M 24.195312 148.945312 L 186.945312 148.945312 L 186.945312 226.195312 L 24.195312 226.195312 L 24.195312 148.945312 " fill-opacity="1" fill-rule="nonzero"/></g><g fill="#ffffff" fill-opacity="1"><g transform="translate(43.544276, 200.502346)"><g><path d="M 2.738281 0 L 16.023438 0 C 21.28125 0 24.941406 -2.960938 24.941406 -7.214844 C 24.941406 -9.957031 23.464844 -12.175781 21.019531 -13.25 C 23.019531 -14.394531 24.167969 -16.46875 24.167969 -18.949219 C 24.167969 -23.203125 20.761719 -25.90625 15.359375 -25.90625 L 2.738281 -25.90625 Z M 10.066406 -5.550781 L 10.066406 -10.398438 L 14.582031 -10.398438 C 16.359375 -10.398438 17.355469 -9.511719 17.355469 -7.992188 C 17.355469 -6.4375 16.359375 -5.550781 14.582031 -5.550781 Z M 10.066406 -15.726562 L 10.066406 -20.390625 L 13.953125 -20.390625 C 15.691406 -20.390625 16.652344 -19.539062 16.652344 -18.058594 C 16.652344 -16.542969 15.691406 -15.726562 13.953125 -15.726562 Z M 10.066406 -15.726562 "/></g></g></g><g fill="#ffffff" fill-opacity="1"><g transform="translate(72.364922, 200.502346)"><g><path d="M 2.738281 0 L 20.910156 0 L 20.910156 -6.105469 L 10.140625 -6.105469 L 10.140625 -10.101562 L 19.503906 -10.101562 L 19.503906 -16.097656 L 10.140625 -16.097656 L 10.140625 -19.875 L 20.503906 -19.875 L 20.503906 -25.90625 L 2.738281 -25.90625 Z M 2.738281 0 "/></g></g></g><g fill="#ffffff" fill-opacity="1"><g transform="translate(97.744977, 200.502346)"><g/></g></g><g fill="#ffffff" fill-opacity="1"><g transform="translate(109.103743, 200.502346)"><g><path d="M 8.917969 0 L 16.359375 0 L 16.359375 -18.984375 L 24.238281 -18.984375 L 24.238281 -25.90625 L 1.035156 -25.90625 L 1.035156 -18.984375 L 8.917969 -18.984375 Z M 8.917969 0 "/></g></g></g><g fill="#ffffff" fill-opacity="1"><g transform="translate(137.184478, 200.502346)"><g><path d="M 15.359375 0.554688 C 23.609375 0.554688 29.457031 -5.03125 29.457031 -12.953125 C 29.457031 -20.871094 23.609375 -26.460938 15.359375 -26.460938 C 7.105469 -26.460938 1.257812 -20.871094 1.257812 -12.953125 C 1.257812 -5.03125 7.105469 0.554688 15.359375 0.554688 Z M 8.84375 -12.953125 C 8.84375 -16.839844 11.546875 -19.539062 15.359375 -19.539062 C 19.207031 -19.539062 21.871094 -16.839844 21.871094 -12.953125 C 21.871094 -9.066406 19.207031 -6.367188 15.359375 -6.367188 C 11.546875 -6.367188 8.84375 -9.066406 8.84375 -12.953125 Z M 8.84375 -12.953125 "/></g></g></g><g fill="#000000" fill-opacity="1"><g transform="translate(214.482592, 199.713456)"><g><path d="M 8.511719 0 L 15.949219 0 L 20.648438 -14.394531 L 25.351562 0 L 32.789062 0 L 41.113281 -25.90625 L 33.269531 -25.90625 L 31.457031 -20.132812 L 28.792969 -11.84375 L 24.203125 -25.90625 L 17.097656 -25.90625 L 15.171875 -20.132812 L 12.546875 -12.0625 L 9.917969 -20.132812 L 8.105469 -25.90625 L 0.183594 -25.90625 Z M 8.511719 0 "/></g></g></g><g fill="#000000" fill-opacity="1"><g transform="translate(255.779775, 199.713456)"><g><path d="M 2.738281 0 L 20.910156 0 L 20.910156 -6.105469 L 10.140625 -6.105469 L 10.140625 -10.101562 L 19.503906 -10.101562 L 19.503906 -16.097656 L 10.140625 -16.097656 L 10.140625 -19.871094 L 20.5 -19.871094 L 20.5 -25.90625 L 2.738281 -25.90625 Z M 2.738281 0 "/></g></g></g><g fill="#000000" fill-opacity="1"><g transform="translate(278.352604, 199.713456)"><g><path d="M 0.183594 0 L 8.105469 0 L 9.511719 -3.664062 L 18.355469 -3.664062 L 19.761719 0 L 27.71875 0 L 17.652344 -25.90625 L 10.25 -25.90625 Z M 11.066406 -9.140625 L 13.953125 -17.171875 L 16.839844 -9.140625 Z M 11.066406 -9.140625 "/></g></g></g><g fill="#000000" fill-opacity="1"><g transform="translate(306.254103, 199.713456)"><g><path d="M 2.738281 0 L 10.214844 0 L 10.214844 -7.363281 L 13.027344 -7.363281 L 16.726562 0 L 25.203125 0 L 20.429688 -8.734375 C 23.167969 -10.25 24.71875 -12.988281 24.71875 -16.617188 C 24.71875 -22.351562 20.835938 -25.90625 14.542969 -25.90625 L 2.738281 -25.90625 Z M 10.066406 -13.324219 L 10.066406 -19.796875 L 13.542969 -19.796875 C 15.914062 -19.796875 17.207031 -18.652344 17.207031 -16.578125 C 17.207031 -14.507812 15.914062 -13.324219 13.542969 -13.324219 Z M 10.066406 -13.324219 "/></g></g></g></svg>